<?xml version="1.0" standalone="no"?>
<!DOCTYPE svg PUBLIC "-//W3C//DTD SVG 20010904//EN"
 "http://www.w3.org/TR/2001/REC-SVG-20010904/DTD/svg10.dtd">
<svg version="1.0" xmlns="http://www.w3.org/2000/svg"
 width="512.000000pt" height="512.000000pt" viewBox="0 0 512.000000 512.000000"
 preserveAspectRatio="xMidYMid meet">

<g transform="translate(0.000000,512.000000) scale(0.100000,-0.100000)"
fill="#0cc2f0" stroke="none">
<path d="M4200 4748 c-107 -55 -111 -177 -9 -273 17 -16 65 -70 105 -118 631
-753 695 -1848 157 -2677 -72 -110 -120 -172 -231 -298 -54 -61 -95 -116 -101
-137 -32 -117 88 -219 202 -171 42 17 177 161 282 301 424 563 595 1266 479
1965 -81 485 -295 923 -641 1306 -56 63 -95 97 -123 108 -53 21 -67 20 -120
-6z"/>
<path d="M995 4660 c-148 -24 -299 -76 -417 -145 -506 -297 -713 -918 -485
-1451 260 -604 966 -871 1555 -589 169 81 320 205 437 360 61 80 148 259 180
368 135 475 -58 995 -473 1271 -187 124 -375 184 -602 191 -74 2 -162 0 -195
-5z"/>
<path d="M3733 4290 c-41 -25 -63 -59 -70 -107 -7 -54 15 -99 84 -174 305
-330 464 -786 424 -1218 -37 -399 -176 -708 -452 -1007 -72 -77 -77 -151 -17
-220 37 -42 92 -59 146 -45 59 16 204 174 314 342 405 620 420 1413 39 2042
-100 166 -270 369 -328 393 -46 20 -103 17 -140 -6z"/>
<path d="M3315 3853 c-61 -16 -105 -76 -105 -145 0 -49 9 -64 103 -180 78 -95
154 -241 189 -363 20 -70 23 -101 22 -255 0 -161 -2 -182 -28 -265 -47 -157
-123 -289 -232 -407 -49 -52 -59 -80 -51 -144 10 -95 120 -154 205 -110 69 35
203 206 277 352 147 288 176 641 80 959 -48 160 -157 349 -274 477 -70 77
-118 98 -186 81z"/>
<path d="M2823 3380 c-41 -25 -63 -59 -70 -107 -6 -46 12 -89 66 -157 92 -115
95 -288 6 -398 -79 -98 -93 -166 -48 -227 75 -99 180 -90 273 24 193 236 185
591 -19 818 -19 21 -47 45 -62 53 -40 20 -108 18 -146 -6z"/>
<path d="M257 2230 c-117 -148 -195 -312 -234 -490 -16 -77 -18 -142 -18 -687
0 -592 0 -602 21 -629 11 -15 33 -37 48 -48 27 -21 33 -21 1081 -21 1048 0
1054 0 1081 21 15 11 37 33 48 48 21 27 21 40 24 569 2 356 -1 576 -8 641 -18
159 -69 314 -147 449 -47 80 -161 227 -177 227 -6 0 -24 -9 -41 -21 -16 -11
-73 -42 -125 -68 -356 -181 -768 -208 -1140 -76 -83 30 -234 103 -289 141 -20
13 -41 24 -48 24 -7 0 -41 -36 -76 -80z"/>
</g>
</svg>
